<svg id="Capa_1" enable-background="new 0 0 512 512" height="512" viewBox="0 0 512 512" width="512" xmlns="http://www.w3.org/2000/svg" xmlns:xlink="http://www.w3.org/1999/xlink"><linearGradient id="SVGID_1_" gradientUnits="userSpaceOnUse" x1="256" x2="256" y1="512" y2="0"><stop offset="0" stop-color="#fd5900"/><stop offset="1" stop-color="#ffde00"/></linearGradient><g><g><g><path d="m497 0h-482c-8.284 0-15 6.716-15 15v62c0 8.284 6.716 15 15 15h46v405c0 5.532 3.045 10.615 7.922 13.225 4.866 2.604 10.784 2.332 15.398-.744l171.68-114.453 171.68 114.453c4.61 3.074 10.528 3.35 15.398.744 4.877-2.61 7.922-7.693 7.922-13.225v-405h46c8.284 0 15-6.716 15-15v-62c0-8.284-6.716-15-15-15zm-76 468.972-156.675-104.45c-4.968-3.309-11.539-3.404-16.646-.002l-156.679 104.452v-376.972h330zm61-406.972h-452v-32h452zm-211 225c0 24.813 20.187 45 45 45s45-20.187 45-45-20.187-45-45-45-45 20.187-45 45zm60 0c0 8.271-6.729 15-15 15s-15-6.729-15-15 6.729-15 15-15 15 6.729 15 15zm-144.371 41.713c6.441 5.152 15.886 4.155 21.083-2.342l120-150c5.175-6.469 4.126-15.909-2.342-21.083-6.47-5.176-15.909-4.126-21.083 2.342l-120 150c-5.175 6.469-4.126 15.908 2.342 21.083zm9.371-86.713c24.813 0 45-20.187 45-45s-20.187-45-45-45-45 20.187-45 45 20.187 45 45 45zm0-60c8.271 0 15 6.729 15 15s-6.729 15-15 15-15-6.729-15-15 6.729-15 15-15z" fill="url(#SVGID_1_)"/></g></g></g></svg>